<svg width="47" height="54" viewBox="0 0 47 54" fill="none" xmlns="http://www.w3.org/2000/svg">
<path d="M47 54L41.2271 48.8842L37.9732 45.8432L34.5326 42.6316L35.9462 47.6308H5.50433C2.45567 47.6199 -0.0077836 45.128 1.84816e-05 42.0632L1.84816e-05 5.562C-0.00465976 2.49933 2.45788 0.0109681 5.50433 0L41.4957 0C44.5421 0.0109681 47.0047 2.49933 47 5.562V54ZM34.2075 29.8648C33.0155 31.4721 31.2993 32.6069 29.3591 33.0707C30.1563 34.0939 31.1175 35.2506 31.126 35.262C34.369 35.3309 37.4396 33.7975 39.3443 31.158C39.2468 25.6861 37.9249 20.3066 35.4769 15.4184C33.3216 13.7182 30.6981 12.7259 27.9625 12.5763H27.9314L27.5554 13.0083C29.9989 13.6681 32.2776 14.8358 34.2443 16.4359C31.7418 15.0529 28.9957 14.1726 26.1589 13.8439C24.3559 13.6426 22.5353 13.6607 20.7366 13.8979C20.6094 13.9004 20.4827 13.9137 20.3577 13.9377H20.2786C18.1706 14.1817 16.1138 14.7571 14.1834 15.6429C13.2166 16.0892 12.6229 16.4132 12.5974 16.4245C12.572 16.4359 12.5974 16.4245 12.5974 16.4046C14.6835 14.7552 17.0901 13.5634 19.6623 12.906L19.3796 12.582H19.3626C16.6271 12.732 14.0037 13.7242 11.8483 15.4241C9.39128 20.3089 8.06894 25.6906 7.98084 31.1637C9.86178 33.8207 12.9367 35.3599 16.1793 35.2677C16.1793 35.2677 17.1914 34.0285 17.9802 33.0253C16.0889 32.5474 14.4224 31.4218 13.2675 29.8421C13.2872 29.8563 13.5671 30.0467 14.0195 30.2968C14.0498 30.3327 14.0874 30.3618 14.1297 30.3821C14.1655 30.407 14.2034 30.4289 14.2428 30.4475C14.2875 30.4679 14.3301 30.4926 14.37 30.5214C15.0008 30.8709 15.6555 31.1748 16.3292 31.4308C17.61 31.9407 18.9349 32.3308 20.2871 32.5961C21.4709 32.8205 22.6728 32.9347 23.8774 32.9372C25.0069 32.937 26.134 32.8324 27.2445 32.6245C28.5818 32.3884 29.8879 31.9994 31.1373 31.4649C32.2166 31.0476 33.2463 30.511 34.2075 29.8648ZM28.446 28.6513C27.216 28.7591 26.0463 28.0968 25.5005 26.9835C24.9546 25.8702 25.1446 24.5342 25.9788 23.6192C26.8131 22.7042 28.1205 22.3978 29.2712 22.8478C30.4218 23.2977 31.1797 24.4116 31.1797 25.6528C31.242 27.2385 30.0199 28.5775 28.4431 28.6513H28.446ZM18.6417 28.6513C17.0949 28.5157 15.9078 27.2138 15.9078 25.6528C15.9078 24.0919 17.0949 22.79 18.6417 22.6544C19.3542 22.6566 20.0355 22.9488 20.5302 23.4644C21.0915 24.0501 21.3968 24.8369 21.3783 25.65C21.4437 27.2384 20.2186 28.5806 18.6389 28.6513H18.6417Z" fill="white"/>
</svg>
