<svg width="53" height="46" viewBox="0 0 53 46" fill="none" xmlns="http://www.w3.org/2000/svg">
<path fill-rule="evenodd" clip-rule="evenodd" d="M48.3669 0.0685504C47.7684 0.191878 47.2655 0.375969 44.7181 1.4046C42.1016 2.4611 36.0496 4.92045 35.4303 5.17886C35.1931 5.27784 33.7751 5.85626 32.2791 6.46422C29.5969 7.55426 12.3369 14.5863 7.36782 16.6135C5.96304 17.1866 4.36587 17.8357 3.81855 18.056C2.21714 18.7005 1.59499 19.0539 0.979535 19.669C-0.286991 20.9346 -0.329383 22.8116 0.876042 24.247C1.22506 24.6626 2.03198 25.2638 2.60371 25.5345C2.83398 25.6435 5.29133 26.4714 8.06441 27.3743C10.8375 28.2773 13.1241 29.0362 13.1458 29.061C13.1675 29.0856 13.6413 30.5511 14.1987 32.3175C17.0013 41.1998 17.1633 41.675 17.662 42.4774C17.9729 42.9776 18.4916 43.4809 18.9059 43.6841C19.4365 43.9444 20.1999 44.0656 20.7699 43.98C21.3427 43.894 21.8693 43.7063 22.2111 43.4666C22.3553 43.3655 23.0376 42.7838 23.7274 42.1741C26.8917 39.3766 28.2227 38.2275 28.2916 38.2333C28.3326 38.2368 29.6048 39.1599 31.1187 40.2845C38.9017 46.0666 38.2262 45.6033 39.2861 45.8853C39.8721 46.0411 41.3288 46.0375 41.9317 45.8786C42.9433 45.6121 43.8112 45.0477 44.4301 44.2541C45.1266 43.3611 45.0807 43.5217 46.1447 38.2545C46.6759 35.6251 47.213 32.9679 47.3382 32.3496C47.583 31.1412 49.1355 23.4484 49.5613 21.3337C49.7036 20.6271 50.3454 17.4476 50.9875 14.2681C51.6296 11.0885 52.3312 7.61412 52.5467 6.54715C52.7621 5.48017 52.9576 4.39624 52.9813 4.13841C53.1884 1.87857 51.6517 0.0903897 49.4283 0.00418909C49.0456 -0.0106487 48.6287 0.014659 48.3669 0.0685504ZM48.8594 4.19963C48.8452 4.26142 48.7749 4.61547 48.7032 4.98642C48.6316 5.35736 48.1669 7.66975 47.6707 10.125C46.4467 16.1814 42.6559 34.9421 41.9664 38.3554C41.6596 39.8745 41.3879 41.2331 41.3627 41.3744C41.3036 41.7062 41.1673 41.9637 41.0066 42.0469C40.8127 42.1474 40.4603 42.1261 40.2043 41.9985C40.027 41.9101 35.2291 38.3799 31.0186 35.2399C28.1691 33.1148 28.0639 33.0425 27.9492 33.1306C27.8875 33.178 26.3614 34.5175 24.5579 36.1073C21.2219 39.0479 20.7688 39.442 20.7688 39.4036C20.7688 39.3728 22.2165 30.4325 22.2604 30.1922C22.2893 30.034 22.6349 29.6897 23.9687 28.4901C24.8883 27.6629 26.1202 26.5526 26.7063 26.0227C27.2924 25.4928 29.4876 23.5141 31.5845 21.6255C33.6815 19.737 35.5762 18.0288 35.7952 17.8295C36.0141 17.6302 36.8948 16.836 37.7522 16.0647C40.7887 13.3332 41.1092 13.0428 41.7551 12.4382C42.4815 11.7582 42.5989 11.5914 42.5471 11.3122C42.4681 10.887 42.1483 10.791 41.551 11.0135C41.3773 11.0781 40.5485 11.5449 39.7093 12.0508C38.8701 12.5566 36.3624 14.0608 34.1366 15.3935C31.9109 16.7261 29.5375 18.1481 28.8625 18.5533C27.6736 19.2671 23.0752 22.0216 18.6381 24.6778C17.2633 25.5008 16.4408 25.9565 16.3825 25.9276C16.332 25.9025 13.6786 25.0349 10.4859 23.9995C7.29319 22.9642 4.65751 22.0973 4.62878 22.0731C4.60006 22.0489 7.21225 20.9558 10.4337 19.644C15.9021 17.4173 20.4955 15.5459 30.7532 11.3654C39.1422 7.94652 40.3819 7.4423 44.552 5.75393C46.8871 4.80843 48.8173 4.04669 48.8413 4.06108C48.8654 4.07546 48.8735 4.13783 48.8594 4.19963Z" fill="white"/>
</svg>
